<svg xmlns="http://www.w3.org/2000/svg" width="400" height="165.333" viewBox="0 0 400 165.333">
  <path
    d="m95.183 10.307-8.916 8.892v47.706c0 38.059-.017 47.701-.083 47.678-.046-.015-19.074-22.755-42.284-50.533A199079 199079 0 0 0 1.65 13.494c-.028-.027-.05 27.225-.05 60.562v60.611h16.733V96.694c0-24.286.023-37.964.064-37.95.036.013 14.379 17.093 31.874 37.956l31.809 37.933 11.01 14.154 11.01 14.153.017-40.409c.009-22.225.009-58.568 0-80.762L104.1 1.415zm268.848 28.442c-.018.047-.023 18.385-.012 40.751l.021 40.667.144.852c1.345 7.988 7.872 13.602 15.816 13.602 7.966 0 14.503-5.642 15.82-13.654.164-1 .272-33.228.117-35.121-.489-5.99-5.849-12.108-12.57-14.35-4.765-1.589-10.626.038-14.684 4.076l-.683.68-.017-18.776-.016-18.776-1.952-.018c-1.527-.014-1.959.001-1.984.067m-248 12c-.018.046-.024 2.739-.015 5.984l.017 5.9h3.934V50.7l-1.952-.018c-1.526-.013-1.959.001-1.984.067m0 20c-.017.046-.024 14.439-.015 31.984l.017 31.9h3.934V70.7l-1.952-.018c-1.526-.013-1.959.001-1.984.067m102.769-.016c-7.538.588-13.51 6.229-14.647 13.834-.188 1.256-.185 34.874.003 36.2 1.416 9.98 11.355 16.198 20.874 13.057 5.78-1.906 9.895-6.874 10.817-13.057.159-1.064.188-34.755.031-35.934-1.147-8.624-8.582-14.763-17.078-14.1m29.23.017c-.081.211.01 49.153.093 49.683.593 3.82 2.064 6.822 4.575 9.337 7.27 7.285 19.537 5.863 24.892-2.886.45-.736.375-.726.753-.098 6.775 11.238 23.645 9.797 28.517-2.435 1.222-3.068 1.15-1.165 1.126-29.818l-.019-23.833h-3.934l-.037 24.7c-.04 26.666-.014 24.79-.358 26.116a12.07 12.07 0 0 1-6.471 7.823c-6.719 3.196-14.662-.399-16.732-7.571-.395-1.369-.394-1.349-.433-6.401l-.035-4.667h-3.934l-.036 4.667c-.039 4.905-.039 4.914-.36 6.15a12.07 12.07 0 0 1-6.47 7.822c-6.72 3.196-14.662-.398-16.733-7.572-.429-1.489-.391.831-.431-26.367l-.036-24.7-1.952-.018c-1.54-.014-1.959.001-1.985.068m86.77-.017c-7.538.588-13.51 6.229-14.647 13.834-.188 1.256-.185 34.874.003 36.2 1.416 9.98 11.355 16.198 20.874 13.057 6.256-2.063 10.721-7.977 10.917-14.457l.02-.667h-3.934l-.047.764c-.485 7.753-8.312 13.05-15.708 10.631-4.127-1.351-7.167-4.784-8.09-9.136l-.154-.726-.019-8.783-.018-8.783 13.985-.017 13.985-.017v-8.566c0-9.174.004-9.026-.344-10.7-1.619-7.775-8.911-13.251-16.823-12.634m-188.133.175c-4.179.511-7.255 1.948-9.984 4.665l-.683.68v-5.32h-4l.017 31.85.016 31.85h3.934l.034-24.7.035-24.7.18-.804c2.852-12.733 20.716-12.733 23.568 0l.18.804.035 24.7.034 24.7h3.934l.034-24.7.035-24.7.18-.804c2.852-12.733 20.716-12.733 23.568 0l.18.804.035 24.7.034 24.7h3.934v-24.466c0-26 .013-24.849-.309-26.467-1.209-6.079-5.938-10.984-11.958-12.401-6.725-1.582-13.838 1.381-17.339 7.223-.396.661-.318.668-.771-.073-2.431-3.971-6.543-6.68-11.257-7.415-.671-.105-3.146-.19-3.666-.126m75.625 3.955c5.103 1.023 9.064 5.29 9.64 10.386.053.463.068 5.608.054 17.818l-.019 17.166-.154.726c-1.652 7.776-9.937 11.933-17.013 8.535-3.423-1.644-5.846-4.785-6.614-8.572l-.153-.755v-35l.153-.756c1.326-6.545 7.67-10.839 14.106-9.548m116 0c5.082 1.019 9.018 5.239 9.639 10.335.043.353.069 2.988.069 7.017v6.452h-24.005l.02-6.784c.023-7.634-.003-7.228.558-8.942 1.873-5.724 7.865-9.252 13.719-8.078m42.775.008c5.732.525 10.206 4.805 10.865 10.396.054.456.069 5.43.055 17.8l-.02 17.166-.154.726c-1.652 7.776-9.937 11.933-17.013 8.535-3.423-1.644-5.846-4.785-6.614-8.572l-.153-.755V85.3l.181-.837c1.315-6.075 6.773-10.149 12.853-9.592"
    fill="white"
    fill-rule="evenodd"
  />
</svg>
